<?xml version="1.0" encoding="UTF-8"?>
<svg version="1.1" xmlns="http://www.w3.org/2000/svg" width="706" height="145">
<path d="M0 0 C14.40951382 11.4518611 23.35114916 26.57788228 26.25488281 44.73193359 C26.49316315 47.82524565 26.46207192 50.624097 26.25488281 53.73193359 C24.14818822 55.83862819 19.54231993 54.99085848 16.62597656 55.04833984 C15.76174576 55.06912094 14.89751495 55.08990204 14.00709534 55.11131287 C11.23560836 55.17690473 8.4640236 55.23573777 5.69238281 55.29443359 C3.81802358 55.33760967 1.94367438 55.38122365 0.06933594 55.42529297 C-4.53538055 55.53259587 -9.14019577 55.63383574 -13.74511719 55.73193359 C-10.81350673 58.66354405 -7.70818513 58.02957819 -3.78027344 58.04052734 C-2.1598271 58.06568509 -0.53938447 58.09108315 1.08105469 58.11669922 C3.63988301 58.14546667 6.19864683 58.1694795 8.75756836 58.18823242 C11.22446109 58.20985724 13.69059523 58.24929184 16.15722656 58.29052734 C16.92292465 58.29064316 17.68862274 58.29075897 18.4775238 58.2908783 C23.79090293 58.39013251 23.79090293 58.39013251 25.95646667 59.98544312 C27.58266177 62.17282679 27.63465534 63.36775072 27.64306641 66.07641602 C27.65252289 66.95130173 27.66197937 67.82618744 27.67172241 68.72758484 C27.66564972 69.67132462 27.65957703 70.61506439 27.65332031 71.58740234 C27.65762558 73.05080803 27.65762558 73.05080803 27.66201782 74.54377747 C27.66406048 76.61081522 27.65851656 78.67787221 27.64599609 80.74487305 C27.63003172 83.8900963 27.64579342 87.03401756 27.66503906 90.17919922 C27.66305498 92.19026974 27.65920789 94.20133946 27.65332031 96.21240234 C27.65939301 97.14602097 27.6654657 98.07963959 27.67172241 99.04154968 C27.57855614 107.81629463 25.46692208 114.37198863 19.25488281 120.73193359 C14.95846017 123.77086668 11.27610551 124.85075414 6.06254578 124.87237549 C5.23416199 124.87808563 4.4057782 124.88379578 3.55229187 124.88967896 C2.65194717 124.89079681 1.75160248 124.89191467 0.82397461 124.89306641 C-0.13096893 124.89803131 -1.08591248 124.90299622 -2.0697937 124.90811157 C-5.22850262 124.92271477 -8.38716131 124.92953209 -11.54589844 124.93505859 C-13.74301657 124.94081149 -15.9401347 124.94656921 -18.13725281 124.95233154 C-22.74474318 124.96283624 -27.35221613 124.96868241 -31.9597168 124.97216797 C-37.85773057 124.97765204 -43.75551342 125.00168062 -49.65345478 125.03013992 C-54.19254729 125.04878189 -58.73158434 125.05397274 -63.2707119 125.05550385 C-65.44477794 125.05852728 -67.61884307 125.06654536 -69.79287148 125.07968903 C-72.83743389 125.09678207 -75.88143419 125.09486118 -78.92602539 125.08837891 C-79.82029739 125.09759369 -80.7145694 125.10680847 -81.63594055 125.11630249 C-89.94105641 125.06103233 -95.73381384 122.74323694 -101.74511719 116.73193359 C-106.08271461 110.53302431 -106.29649088 104.63694949 -106.17089844 97.26708984 C-106.16761032 96.1931749 -106.1643222 95.11925995 -106.16093445 94.01280212 C-106.15056042 91.75790281 -106.13069078 89.50302919 -106.10180664 87.24829102 C-106.05744662 83.78110227 -106.04032345 80.31460634 -106.02832031 76.84716797 C-106.01490738 74.65379849 -105.9999875 72.4604376 -105.98339844 70.26708984 C-105.97601151 69.22553238 -105.96862457 68.18397491 -105.96101379 67.1108551 C-105.94817856 66.15573532 -105.93534332 65.20061554 -105.92211914 64.21655273 C-105.91227493 63.37242325 -105.90243073 62.52829376 -105.89228821 61.65858459 C-105.74511719 59.73193359 -105.74511719 59.73193359 -104.74511719 58.73193359 C-102.15152397 58.6434183 -99.58472027 58.61667414 -96.99121094 58.63427734 C-96.21576431 58.63569229 -95.44031769 58.63710724 -94.64137268 58.63856506 C-92.15508224 58.64418014 -89.66888058 58.65673513 -87.18261719 58.66943359 C-85.50097786 58.67444665 -83.81933713 58.6790099 -82.13769531 58.68310547 C-78.00680153 58.69415446 -73.87597443 58.71142915 -69.74511719 58.73193359 C-69.74511719 57.41193359 -69.74511719 56.09193359 -69.74511719 54.73193359 C-70.80013428 54.73717041 -71.85515137 54.74240723 -72.94213867 54.74780273 C-76.84268348 54.7658526 -80.74322458 54.77736554 -84.64379883 54.78686523 C-86.33456034 54.79190549 -88.02531748 54.79873764 -89.71606445 54.80737305 C-92.14112426 54.81945216 -94.56612663 54.82516482 -96.99121094 54.82958984 C-98.13184242 54.83733177 -98.13184242 54.83733177 -99.29551697 54.8452301 C-101.11244289 54.84542597 -102.92924846 54.79390636 -104.74511719 54.73193359 C-105.74511719 53.73193359 -105.74511719 53.73193359 -106.05761719 50.10693359 C-105.80047422 32.16406882 -95.80408876 15.70818336 -83.37011719 3.37646484 C-59.91743483 -16.56602986 -24.99518086 -18.16241877 0 0 Z " fill="#05BADC" transform="translate(122.7451171875,20.26806640625)"/>
<path d="M0 0 C14.40951382 11.4518611 23.35114916 26.57788228 26.25488281 44.73193359 C26.49316315 47.82524565 26.46207192 50.624097 26.25488281 53.73193359 C24.16842864 55.81838777 19.64546132 54.89606731 16.76660156 54.89990234 C15.91185745 54.90323074 15.05711334 54.90655914 14.1764679 54.9099884 C12.36317484 54.91506239 10.54987241 54.91739658 8.73657227 54.91723633 C5.96452335 54.91941618 3.1928765 54.93754837 0.42089844 54.95654297 C-1.33886582 54.95947813 -3.09863198 54.9614621 -4.85839844 54.96240234 C-6.10234123 54.97318062 -6.10234123 54.97318062 -7.37141418 54.98417664 C-14.48529302 54.95601846 -14.48529302 54.95601846 -17.74511719 52.73193359 C-17.74511719 52.07193359 -17.74511719 51.41193359 -17.74511719 50.73193359 C-19.06511719 50.73193359 -20.38511719 50.73193359 -21.74511719 50.73193359 C-23.68261719 49.04443359 -23.68261719 49.04443359 -25.74511719 46.73193359 C-26.54949219 45.98943359 -27.35386719 45.24693359 -28.18261719 44.48193359 C-34.26125237 37.95852023 -36.79076875 31.37555596 -38.74511719 22.73193359 C-40.23011719 23.22693359 -40.23011719 23.22693359 -41.74511719 23.73193359 C-42.52346315 26.19494799 -42.52346315 26.19494799 -42.99511719 29.16943359 C-45.01005526 38.06697595 -49.51216433 44.28254705 -56.74511719 49.73193359 C-66.62319516 55.6483731 -76.33818449 55.3649693 -87.43261719 55.10693359 C-89.10382062 55.09038863 -90.77504743 55.07605044 -92.44628906 55.06396484 C-104.54799668 54.9290541 -104.54799668 54.9290541 -105.74511719 53.73193359 C-107.21597615 36.66996964 -98.78870232 21.56948912 -88.37011719 8.74365234 C-66.34687062 -16.52409037 -26.75188047 -19.43890139 0 0 Z " fill="#03B9DC" transform="translate(122.7451171875,20.26806640625)"/>
<path d="M0 0 C0.99 0.33 1.98 0.66 3 1 C5.69420583 1.11810919 8.36735018 1.18513212 11.0625 1.2109375 C12.67969782 1.2389949 14.2968852 1.26765928 15.9140625 1.296875 C18.46191234 1.33820744 21.00956487 1.37509861 23.55761719 1.40136719 C26.0179857 1.42892636 28.4774705 1.47478165 30.9375 1.5234375 C31.70006104 1.52669037 32.46262207 1.52994324 33.24829102 1.53329468 C38.53433925 1.65648902 38.53433925 1.65648902 40.70059204 3.25450134 C42.32845338 5.44121242 42.37977134 6.63543494 42.38818359 9.34448242 C42.39764008 10.21936813 42.40709656 11.09425385 42.4168396 11.99565125 C42.41076691 12.93939102 42.40469421 13.8831308 42.3984375 14.85546875 C42.40130768 15.83107254 42.40417786 16.80667633 42.40713501 17.81184387 C42.40917767 19.87888162 42.40363375 21.94593861 42.39111328 24.01293945 C42.37514891 27.15816271 42.39091061 30.30208396 42.41015625 33.44726562 C42.40817217 35.45833615 42.40432508 37.46940587 42.3984375 39.48046875 C42.40451019 40.41408737 42.41058289 41.34770599 42.4168396 42.30961609 C42.32367333 51.08436104 40.21203927 57.64005503 34 64 C29.40142882 67.25264791 25.61213075 68.12786632 20.04785156 68.11352539 C19.06713684 68.11344986 18.08642212 68.11337433 17.07598877 68.11329651 C16.02481873 68.10813522 14.97364868 68.10297394 13.890625 68.09765625 C12.80867859 68.0962413 11.72673218 68.09482635 10.61199951 68.09336853 C7.1579715 68.08777318 3.70400841 68.0752215 0.25 68.0625 C-2.09244698 68.0574844 -4.43489498 68.0529216 -6.77734375 68.04882812 C-12.5182513 68.03780528 -18.25912101 68.02107174 -24 68 C-22.515 67.505 -22.515 67.505 -21 67 C-21.01571045 65.88141602 -21.0314209 64.76283203 -21.04760742 63.61035156 C-21.1024705 59.40583682 -21.13655224 55.20135279 -21.16479492 50.99658203 C-21.17975449 49.18695735 -21.20012957 47.3773681 -21.22631836 45.56787109 C-21.56382391 21.6248305 -21.56382391 21.6248305 -16.0546875 12.9296875 C-10.83158186 8.0061148 -7.18747255 5.79860806 0 5 C0 3.35 0 1.7 0 0 Z " fill="#07BADB" transform="translate(108,77)"/>
<path d="M0 0 C0.86508179 -0.00807175 1.73016357 -0.01614349 2.62145996 -0.02445984 C4.46083562 -0.03832526 6.30023727 -0.04903636 8.13964844 -0.05688477 C10.92955004 -0.07397857 13.71822954 -0.11782635 16.5078125 -0.16210938 C18.2968663 -0.17224665 20.08593018 -0.1807595 21.875 -0.1875 C23.11304382 -0.21376213 23.11304382 -0.21376213 24.37609863 -0.24055481 C31.73144768 -0.21355273 37.54864913 1.95298492 43.34375 6.48828125 C47.23556956 11.52475363 48.80081399 15.96364577 48.40625 22.36328125 C47.78222958 26.97252301 46.28809051 29.60042252 43.46875 33.23828125 C43.46875 33.89828125 43.46875 34.55828125 43.46875 35.23828125 C44.8609375 36.29015625 44.8609375 36.29015625 46.28125 37.36328125 C50.56640433 40.81774372 52.01286793 44.92047287 52.75 50.28515625 C53.01233139 55.92528118 51.72947528 60.56308966 48.0625 64.90234375 C41.00863129 71.65675577 31.94608565 72.70404897 22.55859375 72.56640625 C21.66507706 72.56453308 20.77156036 72.56265991 19.85096741 72.56072998 C17.98467206 72.55406672 16.11838929 72.54026852 14.25219727 72.51953125 C11.38219373 72.4880171 8.51273857 72.47851721 5.64257812 72.47265625 C3.82290989 72.46349908 2.00324727 72.45312745 0.18359375 72.44140625 C-0.67669937 72.43715637 -1.53699249 72.43290649 -2.4233551 72.42852783 C-8.41399704 72.35553421 -8.41399704 72.35553421 -9.53125 71.23828125 C-9.63081278 69.06565445 -9.65924719 66.88975019 -9.66064453 64.71484375 C-9.66239685 64.03355408 -9.66414917 63.3522644 -9.66595459 62.65032959 C-9.67037242 60.38795458 -9.66743538 58.12565712 -9.6640625 55.86328125 C-9.66473556 54.29768865 -9.6657056 52.73209615 -9.66696167 51.16650391 C-9.66843855 47.8811748 -9.66628441 44.59587283 -9.66162109 41.31054688 C-9.6559238 37.09007609 -9.65920286 32.86966889 -9.66519356 28.64920044 C-9.66879944 25.41511553 -9.66766046 22.1810458 -9.66506577 18.94696045 C-9.66439657 17.39036044 -9.66522466 15.83375907 -9.66754532 14.27716064 C-9.6700723 12.10530929 -9.66623065 9.93356229 -9.66064453 7.76171875 C-9.65984894 6.52341309 -9.65905334 5.28510742 -9.65823364 4.00927734 C-9.39715343 -1.68793083 -4.57150156 0.04012728 0 0 Z M2.46875 10.23828125 C2.46875 16.83828125 2.46875 23.43828125 2.46875 30.23828125 C6.84441252 30.3463223 11.21740081 30.42563412 15.59375 30.48828125 C17.45 30.53855469 17.45 30.53855469 19.34375 30.58984375 C28.25117431 30.79887222 28.25117431 30.79887222 35.46875 26.23828125 C37.01899464 23.13779197 36.75867015 20.65933907 36.46875 17.23828125 C34.56322711 13.80834005 33.22396905 12.53163919 29.5625 11.109375 C24.30467934 9.72169448 18.92671872 10.02620354 13.53125 10.11328125 C11.93313477 10.12681641 11.93313477 10.12681641 10.30273438 10.140625 C7.69130839 10.16404586 5.07999913 10.19991188 2.46875 10.23828125 Z M2.46875 40.23828125 C2.46875 47.49828125 2.46875 54.75828125 2.46875 62.23828125 C6.61498464 62.31969822 10.75959796 62.37898937 14.90625 62.42578125 C16.07091797 62.45091797 17.23558594 62.47605469 18.43554688 62.50195312 C25.90165987 62.56504704 33.57110023 62.54537803 39.53125 57.48828125 C40.93067163 54.12966933 40.96631778 51.84564766 40.46875 48.23828125 C38.52670558 44.91801176 37.25333141 42.91799682 33.64257812 41.54272461 C27.04017384 40.06803267 20.65011077 40.00759085 13.90625 40.11328125 C12.25012695 40.12681641 12.25012695 40.12681641 10.56054688 40.140625 C7.86318593 40.16397877 5.16593814 40.19984151 2.46875 40.23828125 Z " fill="#1A1A1B" transform="translate(490.53125,46.76171875)"/>
<path d="M0 0 C0.495 0.495 0.495 0.495 1 1 C1.33 0.175 1.66 -0.65 2 -1.5 C4 -4 4 -4 5.98046875 -4.33203125 C7.98995058 -4.31424822 9.9971564 -4.16416751 12 -4 C13.22140099 -1.55719801 13.13336031 0.03525163 13.14526367 2.76586914 C13.15164352 3.7577272 13.15802338 4.74958527 13.16459656 5.77149963 C13.16570938 6.84850632 13.1668222 7.925513 13.16796875 9.03515625 C13.17296135 10.69689125 13.17296135 10.69689125 13.17805481 12.39219666 C13.18312701 14.74347518 13.18546305 17.09476093 13.18530273 19.44604492 C13.18747624 23.02339806 13.20559302 26.60043637 13.22460938 30.17773438 C13.22754592 32.46354061 13.22952897 34.74934832 13.23046875 37.03515625 C13.23765427 38.09799332 13.24483978 39.16083038 13.25224304 40.25587463 C13.22181214 50.2845764 12.25534789 59.50561933 5 67 C-4.54511762 73.73523832 -14.16360774 74.7211201 -25.5 73.4375 C-32.33267658 72.25603355 -38.02279322 69.42477794 -44 66 C-44 62.7 -44 59.4 -44 56 C-41.13010741 55.16484607 -39.55619248 54.77154659 -36.74609375 55.92578125 C-35.98425781 56.38339844 -35.22242188 56.84101562 -34.4375 57.3125 C-26.36397473 61.60718358 -18.059208 63.00178403 -9.12890625 60.765625 C-5.39510606 59.42282713 -2.94065275 57.54582794 -0.8828125 54.1640625 C0.12662042 51.68961189 0.20322759 49.90973809 0.125 47.25 C0.10695313 46.45078125 0.08890625 45.6515625 0.0703125 44.828125 C0.04710937 44.22484375 0.02390625 43.6215625 0 43 C-1.0725 43.639375 -2.145 44.27875 -3.25 44.9375 C-10.2934456 49.13647718 -18.59535753 48.83276463 -26.53515625 47.609375 C-32.91131693 45.85508741 -37.82797134 42.07318686 -42 37 C-45.83502708 29.90726175 -47.25451193 23.11454864 -45.33984375 15.30859375 C-42.98447607 7.81424205 -39.65435602 2.61059077 -32.72265625 -1.27734375 C-21.86489348 -6.353935 -10.33729417 -6.3614118 0 0 Z M-31.37890625 11.47265625 C-34.60815078 16.23213512 -34.9035637 21.42187713 -34 27 C-31.41812137 32.3623633 -27.62752173 35.59579804 -22.0625 37.75 C-15.07854413 38.59654011 -10.01210433 37.61656566 -4 34 C0.65362278 29.11369608 1.52398225 25.52509896 1.48046875 18.90234375 C0.67303108 14.02489509 -2.1596469 10.9638315 -6 8 C-14.2103403 3.93481528 -24.91436318 4.5685975 -31.37890625 11.47265625 Z " fill="#1B1C1C" transform="translate(683,70)"/>
<path d="M0 0 C1.17912771 0.8368809 2.34718349 1.6897309 3.5 2.5625 C4.49 3.2225 5.48 3.8825 6.5 4.5625 C7.28375 3.799375 8.0675 3.03625 8.875 2.25 C14.47946745 -2.356951 20.969366 -3.77493628 28.125 -3.4375 C33.44834553 -2.72972846 37.53466307 -1.10356622 41.5 2.5625 C45.95847025 8.47256521 46.64315024 13.97783215 46.59765625 21.16796875 C46.5962413 22.00717361 46.59482635 22.84637848 46.59336853 23.71101379 C46.58777215 26.39071216 46.57522035 29.0703269 46.5625 31.75 C46.55748453 33.56705608 46.55292171 35.38411348 46.54882812 37.20117188 C46.53780391 41.65498013 46.52054178 46.10872589 46.5 50.5625 C44.85425434 50.58938151 43.20838587 50.60884123 41.5625 50.625 C40.18771484 50.64240234 40.18771484 50.64240234 38.78515625 50.66015625 C36.5 50.5625 36.5 50.5625 35.5 49.5625 C35.36462253 47.19805916 35.28946429 44.8587096 35.25390625 42.4921875 C35.22093622 41.02343225 35.18772517 39.55468239 35.15429688 38.0859375 C35.10710566 35.76892244 35.06274621 33.45192406 35.02319336 31.13476562 C34.98314071 28.8994918 34.93164592 26.66469316 34.87890625 24.4296875 C34.8704921 23.74711884 34.86207794 23.06455017 34.85340881 22.36129761 C34.73631871 17.73926757 33.91405605 13.91958894 32.5 9.5625 C26.9114816 7.99468036 21.65021297 7.84576234 16.125 9.6875 C12.8478882 12.02829414 12.01119768 13.83885282 10.5 17.5625 C10.18833482 20.23708352 10.01300076 22.69455897 9.98828125 25.3671875 C9.97033005 26.0911673 9.95237885 26.81514709 9.93388367 27.56106567 C9.88008862 29.85315277 9.84598598 32.14503541 9.8125 34.4375 C9.77929951 36.00002827 9.74480734 37.56252966 9.70898438 39.125 C9.62438077 42.93735169 9.55742441 46.749646 9.5 50.5625 C5.87 50.5625 2.24 50.5625 -1.5 50.5625 C-3.03935508 47.48378985 -2.6777055 44.23201358 -2.7109375 40.8515625 C-2.73900668 39.28123959 -2.76767115 37.71092722 -2.796875 36.140625 C-2.83813452 33.663089 -2.87501861 31.18574982 -2.90136719 28.70800781 C-2.92899247 26.31794482 -2.97486257 23.92877927 -3.0234375 21.5390625 C-3.02669037 20.80039948 -3.02994324 20.06173645 -3.03329468 19.3006897 C-3.10822945 16.16167419 -3.31399439 13.90007076 -4.84228516 11.12646484 C-7.92395728 8.21907285 -11.35432251 8.28010368 -15.4375 8.34765625 C-18.66693357 8.68405558 -20.82660471 9.75951248 -23.5 11.5625 C-26.62308607 15.63042434 -26.95324202 19.26689542 -26.9765625 24.234375 C-26.99993179 25.31890961 -26.99993179 25.31890961 -27.02377319 26.425354 C-27.07108462 28.7210594 -27.09900168 31.01646287 -27.125 33.3125 C-27.16147793 35.62260904 -27.20202412 37.93254629 -27.24765015 40.24249268 C-27.27490695 41.67691969 -27.2962452 43.1114734 -27.31118774 44.54608154 C-27.38930336 49.45180336 -27.38930336 49.45180336 -28.5 50.5625 C-30.16429051 50.66073937 -31.83281931 50.69223631 -33.5 50.6875 C-34.86125 50.69136719 -34.86125 50.69136719 -36.25 50.6953125 C-38.5 50.5625 -38.5 50.5625 -39.5 49.5625 C-39.60358194 48.04393658 -39.63851114 46.52061218 -39.64526367 44.99853516 C-39.65164352 44.02727692 -39.65802338 43.05601868 -39.66459656 42.05532837 C-39.66570938 40.99808563 -39.6668222 39.9408429 -39.66796875 38.8515625 C-39.67129715 37.77248627 -39.67462555 36.69341003 -39.67805481 35.58163452 C-39.68312921 33.29335966 -39.68546298 31.00507736 -39.68530273 28.71679688 C-39.6874863 25.20951152 -39.70562873 21.702542 -39.72460938 18.1953125 C-39.72754372 15.97656358 -39.72952824 13.75781316 -39.73046875 11.5390625 C-39.73765427 10.48586823 -39.74483978 9.43267395 -39.75224304 8.3475647 C-39.74916641 7.37000214 -39.74608978 6.39243958 -39.74291992 5.38525391 C-39.74434494 4.52445221 -39.74576996 3.66365051 -39.74723816 2.77676392 C-39.5 0.5625 -39.5 0.5625 -37.5 -2.4375 C-35.5546875 -2.73046875 -35.5546875 -2.73046875 -33.375 -2.625 C-32.09625 -2.563125 -30.8175 -2.50125 -29.5 -2.4375 C-28.84 -1.1175 -28.18 0.2025 -27.5 1.5625 C-26.96890625 1.28535156 -26.4378125 1.00820312 -25.890625 0.72265625 C-24.83101563 0.17931641 -24.83101563 0.17931641 -23.75 -0.375 C-23.05390625 -0.73464844 -22.3578125 -1.09429687 -21.640625 -1.46484375 C-14.63458263 -4.64824621 -6.52283313 -4.09488969 0 0 Z " fill="#171818" transform="translate(292.5,68.4375)"/>
<path d="M0 0 C3.60574645 3.14543839 3.60574645 3.14543839 3.9375 6.5625 C2 9.3125 2 9.3125 -0.0625 11.5625 C-3.46198548 11.12385671 -5.9093828 10.1077963 -8.875 8.5 C-13.2784258 6.46879012 -17.46244707 6.15181336 -22.25 6.125 C-22.92716064 6.11525146 -23.60432129 6.10550293 -24.30200195 6.09545898 C-29.90192268 6.18953491 -34.07964649 7.57964649 -38.0625 11.5625 C-38.50273184 14.93761074 -38.51766642 16.8383716 -36.6875 19.75 C-31.50182932 23.33058214 -25.31593178 24.28647477 -19.2421875 25.6484375 C-18.37207031 25.85025635 -17.50195312 26.0520752 -16.60546875 26.26000977 C-14.86471909 26.66126786 -13.11990909 27.04540922 -11.37109375 27.40991211 C-4.14122173 29.07991668 1.39631267 32.22719162 5.9375 38.1875 C7.81678625 44.53009111 8.16987891 50.95554461 5.3125 57 C-1.69534125 64.56109187 -8.71550413 67.71693782 -19.1171875 68.9140625 C-30.84290119 69.25619208 -43.25187453 66.80144367 -52.0625 58.5625 C-52.98046875 56.01171875 -52.98046875 56.01171875 -53.0625 53.5625 C-51.125 50.75 -51.125 50.75 -49.0625 48.5625 C-45.8617056 48.93906405 -44.13278686 49.51107059 -41.5 51.4375 C-34.8624267 56.12485847 -25.03078624 57.61237555 -17.0625 56.5625 C-13.34241516 55.71966828 -9.70100498 54.70505857 -6.0625 53.5625 C-5.95365881 52.14756449 -5.87652383 50.73017057 -5.8125 49.3125 C-5.76609375 48.52359375 -5.7196875 47.7346875 -5.671875 46.921875 C-6.22206148 43.59874869 -7.39649115 42.58364632 -10.0625 40.5625 C-13.22497275 39.39111145 -13.22497275 39.39111145 -16.8125 38.625 C-18.15293409 38.29142582 -19.49276002 37.95540022 -20.83203125 37.6171875 C-21.52506348 37.44541992 -22.2180957 37.27365234 -22.93212891 37.09667969 C-43.28020054 31.99450449 -43.28020054 31.99450449 -49.0625 24.5625 C-51.89861621 19.45749083 -51.25348599 14.12043464 -50.0625 8.5625 C-48.2498684 3.19711047 -45.06490364 0.27688085 -40.171875 -2.4375 C-28.16204054 -8.13105115 -11.12843607 -7.26938163 0 0 Z " fill="#1A1A1A" transform="translate(238.0625,51.4375)"/>
<path d="M0 0 C2.1640625 -0.29296875 2.1640625 -0.29296875 4.625 -0.1875 C5.44226563 -0.16042969 6.25953125 -0.13335937 7.1015625 -0.10546875 C7.72804688 -0.07066406 8.35453125 -0.03585938 9 0 C10.82089479 3.64178957 10.05121113 8.00553148 10 12 C14.95 12 19.9 12 25 12 C26.49106457 14.98212913 26.11941467 17.71609658 26 21 C25 22 25 22 21.62109375 22.09765625 C20.22652923 22.09098369 18.83198257 22.07902532 17.4375 22.0625 C16.37112305 22.05573242 16.37112305 22.05573242 15.28320312 22.04882812 C13.52209987 22.03700864 11.76103964 22.01907263 10 22 C10.09346313 26.23623542 10.19953913 30.47190851 10.31738281 34.70751953 C10.35569674 36.1488374 10.39054543 37.59025168 10.421875 39.03173828 C10.46747446 41.10223886 10.52547444 43.17207433 10.5859375 45.2421875 C10.6173584 46.4885498 10.6487793 47.73491211 10.68115234 49.01904297 C10.69682309 52.11541776 10.69682309 52.11541776 13 54 C16.27137589 54.1817431 19.06586988 54.32027319 22.1875 53.25 C24 53 24 53 26.25 54.625 C28.27461204 57.37268777 28.37010337 58.6690697 28 62 C21.79019332 65.38716728 16.00680708 65.85564808 9 65 C5.12524236 63.73338327 2.63280965 61.82265255 0.125 58.5625 C-1.96933114 53.79207907 -2.120433 49.33829025 -2.09765625 44.16796875 C-2.09443359 42.87568359 -2.09121094 41.58339844 -2.08789062 40.25195312 C-2.07953665 38.89713474 -2.07107172 37.54231703 -2.0625 36.1875 C-2.05748 34.81315265 -2.05291797 33.43880355 -2.04882812 32.06445312 C-2.03705668 28.70959076 -2.02061283 25.35481779 -2 22 C-4.89724063 22.08724816 -7.79150135 22.19415927 -10.6875 22.3125 C-11.50412109 22.33505859 -12.32074219 22.35761719 -13.16210938 22.38085938 C-17.84944059 22.58960692 -21.27243533 22.86718591 -25 26 C-28.08421187 30.10335093 -28.45317902 33.6909774 -28.4765625 38.671875 C-28.49993179 39.75640961 -28.49993179 39.75640961 -28.52377319 40.862854 C-28.57108462 43.1585594 -28.59900168 45.45396287 -28.625 47.75 C-28.66147793 50.06010904 -28.70202412 52.37004629 -28.74765015 54.67999268 C-28.77490695 56.11441969 -28.7962452 57.5489734 -28.81118774 58.98358154 C-28.88930336 63.88930336 -28.88930336 63.88930336 -30 65 C-31.66429051 65.09823937 -33.33281931 65.12973631 -35 65.125 C-36.36125 65.12886719 -36.36125 65.12886719 -37.75 65.1328125 C-40 65 -40 65 -41 64 C-41.10367027 62.44549012 -41.13851522 60.88631745 -41.14526367 59.32836914 C-41.15164352 58.33386246 -41.15802338 57.33935577 -41.16459656 56.31471252 C-41.16570938 55.23245895 -41.1668222 54.15020538 -41.16796875 53.03515625 C-41.17129715 51.9315123 -41.17462555 50.82786835 -41.17805481 49.69078064 C-41.18312886 47.35123106 -41.18546299 45.01167422 -41.18530273 42.67211914 C-41.18748848 39.08142234 -41.20563734 35.49103296 -41.22460938 31.90039062 C-41.22754327 29.63281356 -41.22952809 27.36523502 -41.23046875 25.09765625 C-41.23765427 24.01742691 -41.24483978 22.93719757 -41.25224304 21.82423401 C-41.24916641 20.82657516 -41.24608978 19.82891632 -41.24291992 18.80102539 C-41.24434494 17.92023819 -41.24576996 17.03945099 -41.24723816 16.13197327 C-41 14 -41 14 -39 12 C-36.8359375 11.8046875 -36.8359375 11.8046875 -34.375 11.875 C-33.14910156 11.90207031 -33.14910156 11.90207031 -31.8984375 11.9296875 C-30.95871094 11.96449219 -30.95871094 11.96449219 -30 12 C-29.67 13.65 -29.34 15.3 -29 17 C-28.53851563 16.64268799 -28.07703125 16.28537598 -27.6015625 15.91723633 C-21.97870091 11.94108976 -17.77721905 11.34915957 -11 11.6875 C-10.12988281 11.71005859 -9.25976562 11.73261719 -8.36328125 11.75585938 C-6.24142749 11.81415206 -4.12047371 11.90380916 -2 12 C-2.02320313 11.38511719 -2.04640625 10.77023438 -2.0703125 10.13671875 C-2.08835937 9.32847656 -2.10640625 8.52023438 -2.125 7.6875 C-2.14820313 6.88699219 -2.17140625 6.08648437 -2.1953125 5.26171875 C-2 3 -2 3 0 0 Z " fill="#1A1A1B" transform="translate(445,54)"/>
<path d="M0 0 C0.99 0.33 1.98 0.66 3 1 C3.95703125 3.625 3.95703125 3.625 4.8125 7 C7.41609344 16.01853088 10.8982179 22.17751066 19 27 C19 27.66 19 28.32 19 29 C20.32 29 21.64 29 23 29 C23 29.66 23 30.32 23 31 C24.32 31.33 25.64 31.66 27 32 C26.67 34.64 26.34 37.28 26 40 C25.35933594 40.20753906 24.71867187 40.41507813 24.05859375 40.62890625 C17.66368678 42.9066749 12.89965324 45.32772018 9 51 C4.88927511 61.17011013 5.4488119 72.47645695 5.3125 83.25 C5.27925825 85.07424221 5.2447625 86.89846202 5.20898438 88.72265625 C5.12487463 93.14831216 5.05770093 97.57392424 5 102 C1.71303767 102.79953138 0.28976808 103.09658936 -3 102 C-3.0093457 100.80511963 -3.01869141 99.61023926 -3.02832031 98.37915039 C-3.06843762 93.9114973 -3.13425542 89.44451718 -3.20751953 84.97729492 C-3.23560372 83.05030007 -3.2568802 81.12319271 -3.27099609 79.19604492 C-3.29260057 76.41266802 -3.33933811 73.6306261 -3.390625 70.84765625 C-3.39185364 69.99728287 -3.39308228 69.14690948 -3.39434814 68.27076721 C-3.60610254 59.46311446 -6.77634464 52.22365536 -13 46 C-17.3426253 42.84456723 -21.82200931 41.26807935 -27 40 C-27 39.34 -27 38.68 -27 38 C-27.66 38 -28.32 38 -29 38 C-29.3125 35.6875 -29.3125 35.6875 -29 33 C-26.73079604 31.1089967 -24.4251837 30.14927415 -21.65234375 29.17578125 C-15.38446122 26.93522595 -11.71264287 24.56318137 -8 19 C-7.484375 18.22914062 -6.96875 17.45828125 -6.4375 16.6640625 C-4.84914337 13.72042332 -4.14670427 11.07483962 -3.4375 7.8125 C-2.21608833 2.21608833 -2.21608833 2.21608833 0 0 Z " fill="#EFFAFA" transform="translate(82,42)"/>
<path d="M0 0 C4.82826422 3.85830043 6.85921876 7.7058327 8.125 13.75 C8.38186492 16.59579862 8.3828953 19.41765472 8.35546875 22.2734375 C8.35501053 23.06021881 8.35455231 23.84700012 8.3540802 24.65762329 C8.35107834 26.30643234 8.34325466 27.95523908 8.33081055 29.60400391 C8.31240233 32.13844722 8.31030218 34.67252764 8.31054688 37.20703125 C8.30563659 38.81250318 8.29981043 40.41797264 8.29296875 42.0234375 C8.29185593 42.78377289 8.2907431 43.54410828 8.28959656 44.32748413 C8.24110031 49.63389969 8.24110031 49.63389969 7.125 50.75 C5.60571962 50.82179964 4.08332518 50.83392007 2.5625 50.8125 C1.73621094 50.80347656 0.90992188 50.79445312 0.05859375 50.78515625 C-0.57949219 50.77355469 -1.21757812 50.76195312 -1.875 50.75 C-2.535 49.43 -3.195 48.11 -3.875 46.75 C-4.6175 47.224375 -5.36 47.69875 -6.125 48.1875 C-12.23801346 51.6608031 -19.00634219 51.34085228 -25.875 50.75 C-31.11710538 49.23579688 -35.18866993 46.58539412 -37.875 41.75 C-39.23342992 37.11535674 -39.36549443 33.02030357 -37.5625 28.5 C-34.75177176 23.59346743 -30.06321434 21.54355184 -24.875 19.75 C-20.24267624 18.72628204 -15.72273448 18.62800819 -11 18.6875 C-9.96746094 18.69426758 -9.96746094 18.69426758 -8.9140625 18.70117188 C-7.23433665 18.71283664 -5.55465625 18.73076729 -3.875 18.75 C-4.143125 17.47125 -4.41125 16.1925 -4.6875 14.875 C-4.83832031 14.15570313 -4.98914063 13.43640625 -5.14453125 12.6953125 C-5.79808838 10.37953451 -5.79808838 10.37953451 -8.875 8.75 C-16.28749133 7.90442691 -22.08716905 8.89196592 -28.875 11.75 C-31.93098306 12.15746441 -33.1587864 12.20360194 -35.75 10.5625 C-36.875 8.75 -36.875 8.75 -36.74609375 6.30859375 C-35.875 3.75 -35.875 3.75 -33.73046875 2.203125 C-32.85003906 1.80609375 -31.96960938 1.4090625 -31.0625 1 C-30.18980469 0.59265625 -29.31710937 0.1853125 -28.41796875 -0.234375 C-20.40935205 -3.43290087 -7.64548332 -4.66746735 0 0 Z M-26.875 31.75 C-27.29202122 34.6657691 -27.29202122 34.6657691 -26.875 37.75 C-23.90854479 40.6889243 -21.60793512 41.18174659 -17.5 41.1875 C-12.54127291 41.05509073 -9.65377859 40.14121155 -5.875 36.75 C-3.58486347 33.3147952 -3.69657027 31.764669 -3.875 27.75 C-16.11392672 26.93501063 -16.11392672 26.93501063 -26.875 31.75 Z " fill="#1A1A1A" transform="translate(383.875,68.25)"/>
<path d="M0 0 C5.76170107 3.89889546 9.30386948 9.09613615 11.375 15.734375 C12.94233897 23.94723121 11.94891646 31.52856125 7.765625 38.78125 C3.07207839 45.12848143 -3.05565045 48.45902245 -10.62109375 50.390625 C-19.77243923 51.75853912 -28.65211873 50.11080694 -36.234375 44.78125 C-42.04905588 39.60716956 -45.57804117 32.91581215 -46.29296875 25.08203125 C-46.07335639 16.45858578 -43.28944656 8.92558551 -37.234375 2.78125 C-26.6719381 -6.10079921 -11.83935349 -6.45782917 0 0 Z M-30.484375 12.15625 C-33.76583181 17.07843522 -34.84055258 20.82050381 -34.234375 26.78125 C-32.80680383 31.11263071 -30.95726903 34.10999126 -27.609375 37.21875 C-21.84018188 39.88967274 -16.05649797 40.66698565 -9.921875 38.71875 C-5.27877331 36.68856789 -2.49467963 33.30185925 -0.234375 28.78125 C0.54792069 22.14291225 0.27546458 16.85292143 -3.765625 11.375 C-6.77936084 8.10477601 -9.44954064 6.96772523 -13.8515625 6.5078125 C-20.76969513 6.26408425 -25.54763929 6.94525119 -30.484375 12.15625 Z " fill="#1A1A1A" transform="translate(619.234375,69.21875)"/>
<path d="M0 0 C0.99 0.33 1.98 0.66 3 1 C3.95703125 3.625 3.95703125 3.625 4.8125 7 C7.41609344 16.01853088 10.8982179 22.17751066 19 27 C19 27.66 19 28.32 19 29 C20.32 29 21.64 29 23 29 C23 29.66 23 30.32 23 31 C24.32 31.33 25.64 31.66 27 32 C26.67 34.64 26.34 37.28 26 40 C24 37 24 37 24 35 C22.02 35 20.04 35 18 35 C17.505 35.99 17.505 35.99 17 37 C14.73743083 37.80584656 12.44920748 38.40518709 10.12890625 39.0234375 C7.47042349 40.24292501 7.08048385 41.35073671 6 44 C5.484375 44.495 4.96875 44.99 4.4375 45.5 C2.73683989 47.27460185 2.41205818 48.61006256 2 51 C1.34 51 0.68 51 0 51 C-1.296875 49.42578125 -1.296875 49.42578125 -2.75 47.3125 C-6.10751404 42.68257844 -9.42978375 38.85673875 -15 37 C-14.67 36.443125 -14.34 35.88625 -14 35.3125 C-12.8690399 32.69715478 -12.84337026 30.8193354 -13 28 C-14.65 28.33 -16.3 28.66 -18 29 C-17.29875 28.505 -16.5975 28.01 -15.875 27.5 C-8.10805904 20.74613829 -4.68755603 12.46052719 -1.6484375 2.8203125 C-1 1 -1 1 0 0 Z " fill="#DEF5F7" transform="translate(82,42)"/>
<path d="M0 0 C3.63 0 7.26 0 11 0 C11.02312504 9.37035938 11.04091591 18.74070901 11.05181217 28.11109066 C11.05704065 32.46168459 11.06413765 36.81225907 11.07543945 41.1628418 C11.08626959 45.35790258 11.0922771 49.55294459 11.09487724 53.74801826 C11.09673126 55.35206968 11.10035144 56.95612003 11.10573006 58.5601635 C11.11294219 60.79916515 11.11399087 63.0380883 11.11352539 65.27709961 C11.115746 66.55395126 11.11796661 67.83080292 11.12025452 69.14634705 C11 72 11 72 10 73 C8.00390625 73.16796875 8.00390625 73.16796875 5.5625 73.1875 C4.75941406 73.20167969 3.95632813 73.21585937 3.12890625 73.23046875 C1 73 1 73 -1 71 C-1.24723816 68.19813538 -1.24723816 68.19813538 -1.24291992 64.57836914 C-1.24481827 63.91965317 -1.24671661 63.26093719 -1.24867249 62.58226013 C-1.25238404 60.39977196 -1.24166972 58.21761497 -1.23046875 56.03515625 C-1.22927688 54.52062519 -1.2288238 53.00609339 -1.2290802 51.49156189 C-1.2275146 48.31472151 -1.21922015 45.1379937 -1.20581055 41.96118164 C-1.18883507 37.88777916 -1.18499578 33.81450064 -1.18575573 29.74106693 C-1.18548383 26.61240962 -1.17999908 23.48377944 -1.17275429 20.35513115 C-1.16957044 18.85321699 -1.16760087 17.35129975 -1.16686058 15.8493824 C-1.1646932 13.7498768 -1.15593993 11.65050274 -1.14526367 9.55102539 C-1.14145187 8.35570694 -1.13764008 7.16038849 -1.13371277 5.92884827 C-1 3 -1 3 0 0 Z " fill="#171718" transform="translate(554,46)"/>
<path d="M0 0 C1.21816406 0.03480469 1.21816406 0.03480469 2.4609375 0.0703125 C3.68683594 0.09738281 3.68683594 0.09738281 4.9375 0.125 C5.87722656 0.15980469 5.87722656 0.15980469 6.8359375 0.1953125 C7.1659375 1.8453125 7.4959375 3.4953125 7.8359375 5.1953125 C8.320625 4.834375 8.8053125 4.4734375 9.3046875 4.1015625 C14.47420567 0.52266531 17.56382222 -0.51282955 23.8359375 0.1953125 C27.3359375 1.1953125 27.3359375 1.1953125 29.8359375 2.1953125 C29.87835473 4.52826025 29.87686687 6.86233817 29.8359375 9.1953125 C27.66767429 11.36357571 22.84909489 10.58139627 19.9140625 10.71875 C15.51709216 11.39949921 12.92046493 12.76294874 10.22216797 16.32666016 C8.50567715 19.87875018 8.37751527 23.00314196 8.359375 26.8671875 C8.33600571 27.95172211 8.33600571 27.95172211 8.31216431 29.0581665 C8.26485288 31.3538719 8.23693582 33.64927537 8.2109375 35.9453125 C8.17445957 38.25542154 8.13391338 40.56535879 8.08828735 42.87530518 C8.06103055 44.30973219 8.0396923 45.7442859 8.02474976 47.17889404 C7.94663414 52.08461586 7.94663414 52.08461586 6.8359375 53.1953125 C5.17164699 53.29355187 3.50311819 53.32504881 1.8359375 53.3203125 C0.4746875 53.32417969 0.4746875 53.32417969 -0.9140625 53.328125 C-3.1640625 53.1953125 -3.1640625 53.1953125 -4.1640625 52.1953125 C-4.26773277 50.64080262 -4.30257772 49.08162995 -4.30932617 47.52368164 C-4.31570602 46.52917496 -4.32208588 45.53466827 -4.32865906 44.51002502 C-4.32977188 43.42777145 -4.3308847 42.34551788 -4.33203125 41.23046875 C-4.33535965 40.1268248 -4.33868805 39.02318085 -4.34211731 37.88609314 C-4.34719136 35.54654356 -4.34952549 33.20698672 -4.34936523 30.86743164 C-4.35155098 27.27673484 -4.36969984 23.68634546 -4.38867188 20.09570312 C-4.39160577 17.82812606 -4.39359059 15.56054752 -4.39453125 13.29296875 C-4.40171677 12.21273941 -4.40890228 11.13251007 -4.41630554 10.01954651 C-4.41322891 9.02188766 -4.41015228 8.02422882 -4.40698242 6.99633789 C-4.40840744 6.11555069 -4.40983246 5.23476349 -4.41130066 4.32728577 C-4.0566576 1.26914327 -3.06900027 0.27698558 0 0 Z " fill="#1E1E1F" transform="translate(408.1640625,65.8046875)"/>
<path d="M0 0 C0.66 0 1.32 0 2 0 C2 1.32 2 2.64 2 4 C2.66 4 3.32 4 4 4 C4.556875 4.70125 5.11375 5.4025 5.6875 6.125 C8.0866637 9.10774407 10.6302638 11.29594533 13.609375 13.66796875 C14.06828125 14.10753906 14.5271875 14.54710938 15 15 C15 15.66 15 16.32 15 17 C10.52941176 21 10.52941176 21 8 21 C7.731875 21.598125 7.46375 22.19625 7.1875 22.8125 C6 25 6 25 4.4375 26.5 C2.73683989 28.27460185 2.41205818 29.61006256 2 32 C1.34 32 0.68 32 0 32 C-1.296875 30.42578125 -1.296875 30.42578125 -2.75 28.3125 C-6.10751404 23.68257844 -9.42978375 19.85673875 -15 18 C-13.95588703 15.24733853 -13.25908826 14.15405248 -10.6875 12.625 C-6.41361358 10.04078961 -3.81646615 6.3910164 -1.3125 2.125 C-0.879375 1.42375 -0.44625 0.7225 0 0 Z " fill="#0EBCDD" transform="translate(82,61)"/>
<path d="M0 0 C4.92957259 -0.07414321 9.85882081 -0.12859817 14.78881836 -0.16479492 C16.4659592 -0.17988384 18.14306057 -0.20035748 19.82006836 -0.22631836 C22.23040504 -0.26269811 24.64022019 -0.27972486 27.05078125 -0.29296875 C27.80087967 -0.30845261 28.55097809 -0.32393646 29.32380676 -0.33988953 C34.53217786 -0.3415743 34.53217786 -0.3415743 36.70080566 1.24182129 C38.3515521 3.47574978 38.36377619 4.71063355 38.34057617 7.47143555 C38.34023628 8.82249641 38.34023628 8.82249641 38.33988953 10.20085144 C38.32440567 11.16968765 38.30892181 12.13852386 38.29296875 13.13671875 C38.28872391 14.13129593 38.28447906 15.12587311 38.28010559 16.15058899 C38.26330153 19.32983375 38.22564576 22.50844656 38.1875 25.6875 C38.17245541 27.84178773 38.15876662 29.99608538 38.14648438 32.15039062 C38.11339244 37.43380967 38.06317592 42.71685969 38 48 C37.01 48 36.02 48 35 48 C35 33.48 35 18.96 35 4 C25.43 4 15.86 4 6 4 C6 3.01 6 2.02 6 1 C4.02 1 2.04 1 0 1 C0 0.67 0 0.34 0 0 Z " fill="#229AAD" transform="translate(112,79)"/>
<path d="M0 0 C2.5 1.5625 2.5 1.5625 4 4 C4.71869236 8.39200889 4.48111179 10.27833231 2 14 C-1.06692037 16.04461358 -1.66893707 16.32393649 -5.125 16.0625 C-7.79089042 15.51926195 -8.88268995 15.09898036 -11 13.3125 C-12.61554364 9.57655533 -12.5602715 6.48071753 -11.125 2.6875 C-8.59371548 -1.10942678 -4.11333009 -0.56903776 0 0 Z " fill="#07A2BE" transform="translate(146,8)"/>
<path d="M0 0 C0.33 0 0.66 0 1 0 C2.18893275 4.60711442 2.33243079 9.26774995 2 14 C-0.08645417 16.08645417 -4.60942149 15.16413372 -7.48828125 15.16796875 C-8.34302536 15.17129715 -9.19776947 15.17462555 -10.07841492 15.17805481 C-11.89170797 15.18312879 -13.7050104 15.18546299 -15.51831055 15.18530273 C-18.29035946 15.18748259 -21.06200631 15.20561478 -23.83398438 15.22460938 C-25.59374864 15.22754454 -27.35351479 15.22952851 -29.11328125 15.23046875 C-29.94257645 15.23765427 -30.77187164 15.24483978 -31.626297 15.25224304 C-38.74017583 15.22408487 -38.74017583 15.22408487 -42 13 C-42 12.34 -42 11.68 -42 11 C-43.32 10.67 -44.64 10.34 -46 10 C-44.02 10 -42.04 10 -40 10 C-40 10.66 -40 11.32 -40 12 C-27.13 12 -14.26 12 -1 12 C-0.67 8.04 -0.34 4.08 0 0 Z " fill="#1BB1C9" transform="translate(147,60)"/>
<path d="M0 0 C0.79066335 2.77147112 1.10579979 5.15707397 1.02172852 8.03417969 C0.99158409 9.20494049 0.99158409 9.20494049 0.96083069 10.39935303 C0.92027809 11.6480014 0.92027809 11.6480014 0.87890625 12.921875 C0.85529526 13.78186096 0.83168427 14.64184692 0.80735779 15.52789307 C0.73091789 18.26877155 0.64680911 21.00935339 0.5625 23.75 C0.50925961 25.61066267 0.45651935 27.47133973 0.40429688 29.33203125 C0.27532941 33.88820791 0.13948466 38.44413368 0 43 C-3.28696233 43.79953138 -4.71023192 44.09658936 -8 43 C-8 29.8 -8 16.6 -8 3 C-6 5 -6 5 -5.77294922 8.43994141 C-5.77326631 9.91051979 -5.78459013 11.38112142 -5.8046875 12.8515625 C-5.8075174 13.62559418 -5.81034729 14.39962585 -5.81326294 15.19711304 C-5.82447246 17.67323157 -5.84957797 20.1489905 -5.875 22.625 C-5.88502882 24.30207812 -5.89415484 25.97916189 -5.90234375 27.65625 C-5.92441426 31.77097223 -5.95894898 35.88542511 -6 40 C-4.68 40 -3.36 40 -2 40 C-1.97494385 38.85934082 -1.9498877 37.71868164 -1.92407227 36.54345703 C-1.83005707 32.32035659 -1.72982213 28.09742291 -1.62768555 23.87451172 C-1.58431435 22.04512425 -1.54264089 20.21569573 -1.50268555 18.38623047 C-1.44503582 15.75996514 -1.38132635 13.1339069 -1.31640625 10.5078125 C-1.29133751 9.27649094 -1.29133751 9.27649094 -1.26576233 8.02029419 C-1.11387171 2.22774341 -1.11387171 2.22774341 0 0 Z " fill="#C2F2F5" transform="translate(87,101)"/>
<path d="M0 0 C11.22 0 22.44 0 34 0 C34 0.66 34 1.32 34 2 C29.38 2.33 24.76 2.66 20 3 C20 3.33 20 3.66 20 4 C14.39 4 8.78 4 3 4 C3 9.28 3 14.56 3 20 C2.34 20.33 1.68 20.66 1 21 C0.67 14.07 0.34 7.14 0 0 Z " fill="#0CBCD8" transform="translate(18,79)"/>
<path d="M0 0 C4.94791294 -0.0246826 9.8957902 -0.04285166 14.84375 -0.05493164 C16.52767562 -0.05996653 18.21159686 -0.06679481 19.89550781 -0.07543945 C22.31316203 -0.08754196 24.73075856 -0.09323668 27.1484375 -0.09765625 C27.9036972 -0.10281754 28.65895691 -0.10797882 29.43710327 -0.11329651 C34.77225659 -0.11387171 34.77225659 -0.11387171 37 1 C36.34 2.32 35.68 3.64 35 5 C25.43 4.67 15.86 4.34 6 4 C6 3.01 6 2.02 6 1 C4.02 1 2.04 1 0 1 C0 0.67 0 0.34 0 0 Z " fill="#0F8C9E" transform="translate(112,79)"/>
<path d="M0 0 C1.65 0.33 3.3 0.66 5 1 C5 2.98 5 4.96 5 7 C4.01 7.495 4.01 7.495 3 8 C2.67 8.99 2.34 9.98 2 11 C-2.402746 12.30892449 -2.402746 12.30892449 -4.8125 11.0625 C-6.70943762 7.76781888 -6.18480076 4.75761536 -6 1 C-3.03 1.495 -3.03 1.495 0 2 C0 1.34 0 0.68 0 0 Z " fill="#0BBAD8" transform="translate(144,9)"/>
<path d="M0 0 C2.4375 0.8125 2.4375 0.8125 5 2 C5.33 2.99 5.66 3.98 6 5 C7.32 5 8.64 5 10 5 C10 5.66 10 6.32 10 7 C11.32 7.33 12.64 7.66 14 8 C13.67 10.64 13.34 13.28 13 16 C11 13 11 13 11 11 C9.02 11 7.04 11 5 11 C4.67 11.66 4.34 12.32 4 13 C2.02111039 13.72693904 0.02045442 14.39816251 -2 15 C-1.34 14.01 -0.68 13.02 0 12 C0.66 12 1.32 12 2 12 C0.35 9.69 -1.3 7.38 -3 5 C-0.36 5.33 2.28 5.66 5 6 C3.35 4.02 1.7 2.04 0 0 Z " fill="#7ED8E5" transform="translate(95,66)"/>
<path d="M0 0 C0.66 0.33 1.32 0.66 2 1 C2.33 1.99 2.66 2.98 3 4 C4.65 4.33 6.3 4.66 8 5 C8 5.99 8 6.98 8 8 C8.99 7.67 9.98 7.34 11 7 C12.42718637 6.91389486 13.85806648 6.88228172 15.2878418 6.88647461 C16.14850754 6.88655014 17.00917328 6.88662567 17.8959198 6.88670349 C18.82100845 6.89186478 19.74609711 6.89702606 20.69921875 6.90234375 C21.64940384 6.9037587 22.59958893 6.90517365 23.5785675 6.90663147 C26.61491029 6.91223125 29.65117948 6.92478368 32.6875 6.9375 C34.74544164 6.94251503 36.80338444 6.94707793 38.86132812 6.95117188 C43.90758046 6.9622006 48.95377775 6.97946507 54 7 C54 7.33 54 7.66 54 8 C40.8 8 27.6 8 14 8 C14 8.66 14 9.32 14 10 C7.06930884 9.75247532 3.05970767 7.75688228 -2 3 C-2.33 2.34 -2.66 1.68 -3 1 C-2.01 0.67 -1.02 0.34 0 0 Z " fill="#25B6CE" transform="translate(24,135)"/>
<path d="M0 0 C2 1 2 1 2.625 2.625 C3.12095645 5.7660575 3.06103811 8.82601831 3 12 C4.98 12 6.96 12 9 12 C9 12.33 9 12.66 9 13 C21.87 13.495 21.87 13.495 35 14 C35 14.33 35 14.66 35 15 C30.03377651 15.02465098 25.06758834 15.04283649 20.10131836 15.05493164 C18.41055684 15.0599719 16.71979971 15.06680405 15.02905273 15.07543945 C12.60399293 15.08751857 10.17899056 15.09323123 7.75390625 15.09765625 C6.61327477 15.10539818 6.61327477 15.10539818 5.44960022 15.11329651 C3.6326743 15.11349238 1.81586873 15.06197277 0 15 C-1 14 -1 14 -1.1328125 12.109375 C-1.11902627 7.9459326 -1.04793541 4.06074971 0 0 Z " fill="#0E91A4" transform="translate(18,60)"/>
<path d="M0 0 C0.33 0 0.66 0 1 0 C2.18893275 4.60711442 2.33243079 9.26774995 2 14 C1 15 1 15 -2.60180664 15.11352539 C-4.20459856 15.11336625 -5.8073956 15.10767063 -7.41015625 15.09765625 C-8.25219101 15.0962413 -9.09422577 15.09482635 -9.96177673 15.09336853 C-12.66205335 15.08775263 -15.36224828 15.07519748 -18.0625 15.0625 C-19.88867068 15.05748705 -21.71484266 15.05292379 -23.54101562 15.04882812 C-28.02737542 15.03777804 -32.51367384 15.02050279 -37 15 C-37 14.67 -37 14.34 -37 14 C-25.12 13.67 -13.24 13.34 -1 13 C-0.505 6.565 -0.505 6.565 0 0 Z " fill="#0E798A" transform="translate(147,60)"/>
<path d="M0 0 C11.22 0 22.44 0 34 0 C34 0.66 34 1.32 34 2 C29.38 2.33 24.76 2.66 20 3 C20 3.33 20 3.66 20 4 C17.36 4 14.72 4 12 4 C11.67 3.34 11.34 2.68 11 2 C8.41394668 1.5316735 8.41394668 1.5316735 5.4375 1.375 C3.91962891 1.26285156 3.91962891 1.26285156 2.37109375 1.1484375 C1.19740234 1.07496094 1.19740234 1.07496094 0 1 C0 0.67 0 0.34 0 0 Z " fill="#0D778A" transform="translate(18,79)"/>
<path d="M0 0 C3.15188579 2.61421115 4.283885 5.60622202 5.75 9.375 C6.19859375 10.49648438 6.6471875 11.61796875 7.109375 12.7734375 C8.01970351 16.07138202 7.99072548 17.77410117 7 21 C6.34 21 5.68 21 5 21 C5 19.02 5 17.04 5 15 C4.34 15 3.68 15 3 15 C3 13.02 3 11.04 3 9 C2.34 9 1.68 9 1 9 C1 7.68 1 6.36 1 5 C0.34 5 -0.32 5 -1 5 C-0.67 3.35 -0.34 1.7 0 0 Z " fill="#14B5CE" transform="translate(139,40)"/>
<path d="M0 0 C3.49741728 1.29762832 6.51716882 2.81379238 9.625 4.875 C10.38039063 5.36742187 11.13578125 5.85984375 11.9140625 6.3671875 C14.06328712 8.04953936 15.47183993 9.75156066 17 12 C16.67 12.66 16.34 13.32 16 14 C15.34 14 14.68 14 14 14 C14 13.34 14 12.68 14 12 C13.34 12 12.68 12 12 12 C12 11.01 12 10.02 12 9 C11.01 9.495 11.01 9.495 10 10 C10 9.34 10 8.68 10 8 C8.68 8 7.36 8 6 8 C6 7.34 6 6.68 6 6 C4.68 6 3.36 6 2 6 C2 5.34 2 4.68 2 4 C1.34 4 0.68 4 0 4 C0 2.68 0 1.36 0 0 Z " fill="#1C96AF" transform="translate(112,15)"/>
<path d="M0 0 C0.33 0 0.66 0 1 0 C1.33 11.55 1.66 23.1 2 35 C4.31 35.33 6.62 35.66 9 36 C8.67 36.66 8.34 37.32 8 38 C5.03 38 2.06 38 -1 38 C-1.33 37.34 -1.66 36.68 -2 36 C-1.67 35.34 -1.34 34.68 -1 34 C-0.84355828 31.44893971 -0.74178611 28.92081337 -0.68359375 26.3671875 C-0.66281265 25.61535187 -0.64203156 24.86351624 -0.62062073 24.08889771 C-0.55517295 21.68435915 -0.49626262 19.27971033 -0.4375 16.875 C-0.39431023 15.24608229 -0.35069579 13.61717578 -0.30664062 11.98828125 C-0.19949649 7.99230085 -0.09821567 3.99620941 0 0 Z " fill="#212222" transform="translate(556,81)"/>
<path d="M0 0 C0.66 0 1.32 0 2 0 C2.74926071 3.66305234 3.2380014 6.42355152 2 10 C-0.89234315 10.82638376 -2.88742431 11 -6 11 C-6 8 -6 8 -4.6875 6.625 C-4.130625 6.08875 -3.57375 5.5525 -3 5 C-2.484375 4.113125 -1.96875 3.22625 -1.4375 2.3125 C-0.7259375 1.1678125 -0.7259375 1.1678125 0 0 Z " fill="#2DC0D7" transform="translate(82,61)"/>
<path d="M0 0 C0.99 0 1.98 0 3 0 C2.66518153 5.35709552 -0.43984609 9.209884 -4 13 C-6.875 14.5 -6.875 14.5 -9 15 C-9 14.01 -9 13.02 -9 12 C-8.01 12 -7.02 12 -6 12 C-6 11.01 -6 10.02 -6 9 C-5.34 9 -4.68 9 -4 9 C-4 8.34 -4 7.68 -4 7 C-3.34 6.67 -2.68 6.34 -2 6 C-2 5.01 -2 4.02 -2 3 C-1.34 3 -0.68 3 0 3 C0 2.01 0 1.02 0 0 Z " fill="#3BA6B4" transform="translate(146,128)"/>
<path d="M0 0 C0.33 0 0.66 0 1 0 C1.42880585 4.37381963 1.48534354 6.34825296 -1.1875 9.9375 C-4.19995189 12.14663138 -5.37267012 12.51818998 -9 12 C-9.33 10.68 -9.66 9.36 -10 8 C-7.69 8 -5.38 8 -3 8 C-2.67 6.68 -2.34 5.36 -2 4 C-1.34 4 -0.68 4 0 4 C0 2.68 0 1.36 0 0 Z " fill="#1D8EA1" transform="translate(149,12)"/>
<path d="M0 0 C0.99 0.33 1.98 0.66 3 1 C3 1.66 3 2.32 3 3 C3.99 3.33 4.98 3.66 6 4 C2.77085248 4.02917228 -0.45826083 4.04685663 -3.6875 4.0625 C-5.05551758 4.07506836 -5.05551758 4.07506836 -6.45117188 4.08789062 C-7.33740234 4.09111328 -8.22363281 4.09433594 -9.13671875 4.09765625 C-9.94842529 4.10289307 -10.76013184 4.10812988 -11.59643555 4.11352539 C-14.14864673 3.9929791 -16.51026137 3.559949 -19 3 C-19 2.67 -19 2.34 -19 2 C-12.73 2 -6.46 2 0 2 C0 1.34 0 0.68 0 0 Z " fill="#2FB2C9" transform="translate(52,79)"/>
<path d="M0 0 C3.98069267 2.87494471 6.43571997 5.82117329 9 10 C8.67 10.66 8.34 11.32 8 12 C5.03 11.505 5.03 11.505 2 11 C0.57741188 7.17679443 -0.24042276 4.08718695 0 0 Z " fill="#0695AC" transform="translate(130,28)"/>
<path d="M0 0 C2 2 2 2 2.22705078 3.87939453 C2.21657715 4.62302246 2.20610352 5.36665039 2.1953125 6.1328125 C2.18886719 6.93847656 2.18242187 7.74414062 2.17578125 8.57421875 C2.15902344 9.41597656 2.14226563 10.25773437 2.125 11.125 C2.11597656 11.97449219 2.10695313 12.82398437 2.09765625 13.69921875 C2.07405647 15.79959884 2.03818483 17.89983444 2 20 C1.34 20 0.68 20 0 20 C-0.33 20.66 -0.66 21.32 -1 22 C-0.67 14.74 -0.34 7.48 0 0 Z " fill="#0FB1CF" transform="translate(19,110)"/>
<path d="M0 0 C7.02952752 0.4535179 12.5849443 2.12059087 19 5 C17 7 17 7 14.4375 7.1875 C12 7 12 7 11 6 C9.67405895 5.63837971 8.34061543 5.30271961 7 5 C7.33 4.01 7.66 3.02 8 2 C7.05125 2.04125 6.1025 2.0825 5.125 2.125 C2 2 2 2 0 0 Z " fill="#1891A2" transform="translate(93,9)"/>
<path d="M0 0 C0.66 0.33 1.32 0.66 2 1 C2.33 1.99 2.66 2.98 3 4 C4.65 4.33 6.3 4.66 8 5 C8 5.99 8 6.98 8 8 C9.98 8 11.96 8 14 8 C14 8.66 14 9.32 14 10 C7.06930884 9.75247532 3.05970767 7.75688228 -2 3 C-2.33 2.34 -2.66 1.68 -3 1 C-2.01 0.67 -1.02 0.34 0 0 Z " fill="#159BAC" transform="translate(24,135)"/>
<path d="M0 0 C0 0.66 0 1.32 0 2 C-1.65 2 -3.3 2 -5 2 C-5 2.66 -5 3.32 -5 4 C-5.66 4 -6.32 4 -7 4 C-6.67 6.31 -6.34 8.62 -6 11 C-6.99 11 -7.98 11 -9 11 C-9 10.34 -9 9.68 -9 9 C-9.66 9 -10.32 9 -11 9 C-11.3125 6.6875 -11.3125 6.6875 -11 4 C-7.63097288 1.37964558 -4.26920922 0 0 0 Z " fill="#BEE5EA" transform="translate(64,71)"/>
<path d="M0 0 C0.66 0 1.32 0 2 0 C3.00109515 3.31070838 3.10356134 6.30084769 3.0625 9.75 C3.05347656 10.73484375 3.04445313 11.7196875 3.03515625 12.734375 C3.02355469 13.48203125 3.01195312 14.2296875 3 15 C2.01 14.67 1.02 14.34 0 14 C-0.19393875 11.85473901 -0.37998676 9.70876323 -0.5625 7.5625 C-0.71912109 5.77005859 -0.71912109 5.77005859 -0.87890625 3.94140625 C-0.91886719 2.97074219 -0.95882812 2.00007813 -1 1 C-0.67 0.67 -0.34 0.34 0 0 Z " fill="#2C2C2C" transform="translate(628,83)"/>
<path d="M0 0 C0.804375 0.4640625 0.804375 0.4640625 1.625 0.9375 C4.3984957 2.17827439 7.00042837 2.5909675 10 3 C10 3.99 10 4.98 10 6 C5.71 6 1.42 6 -3 6 C-2.01 5.67 -1.02 5.34 0 5 C0 3.35 0 1.7 0 0 Z " fill="#3EB5C9" transform="translate(108,77)"/>
<path d="M0 0 C0.99 0.33 1.98 0.66 3 1 C0.40188002 3.87648998 -1.18165434 5.34542646 -5 6 C-6.74886981 6.06624507 -8.50002748 6.08552595 -10.25 6.0625 C-11.14203125 6.05347656 -12.0340625 6.04445312 -12.953125 6.03515625 C-13.62859375 6.02355469 -14.3040625 6.01195312 -15 6 C-14.67 5.01 -14.34 4.02 -14 3 C-12.783125 3.04125 -11.56625 3.0825 -10.3125 3.125 C-6.77817381 3.13126654 -4.18739261 2.64199013 -1 1 C-0.67 0.67 -0.34 0.34 0 0 Z " fill="#272727" transform="translate(676,130)"/>
<path d="M0 0 C0.33 0 0.66 0 1 0 C2.21379503 4.70345575 2.07202527 9.17430687 2 14 C-0.97 14 -3.94 14 -7 14 C-7 13.67 -7 13.34 -7 13 C-5.02 13 -3.04 13 -1 13 C-0.67 8.71 -0.34 4.42 0 0 Z " fill="#198696" transform="translate(147,60)"/>
<path d="M0 0 C3.375 -0.1875 3.375 -0.1875 7 0 C7.66 0.99 8.32 1.98 9 3 C8.125 5.6875 8.125 5.6875 7 8 C6.34 8 5.68 8 5 8 C3.7109375 6.25 3.7109375 6.25 2.375 4 C1.92898437 3.2575 1.48296875 2.515 1.0234375 1.75 C0.68570313 1.1725 0.34796875 0.595 0 0 Z " fill="#22C1DA" transform="translate(77,85)"/>
<path d="M0 0 C-0.33 2.64 -0.66 5.28 -1 8 C-3 5 -3 5 -3 3 C-4.98 3 -6.96 3 -9 3 C-9.33 3.66 -9.66 4.32 -10 5 C-11.97888961 5.72693904 -13.97954558 6.39816251 -16 7 C-15.34 6.01 -14.68 5.02 -14 4 C-13.01 4 -12.02 4 -11 4 C-10.67 3.01 -10.34 2.02 -10 1 C-6.56484998 0.37542727 -3.50935186 0 0 0 Z " fill="#AFE4EA" transform="translate(109,74)"/>
<path d="M0 0 C6.75 -0.125 6.75 -0.125 9 1 C8.67 1.99 8.34 2.98 8 4 C5.36 4 2.72 4 0 4 C0 2.68 0 1.36 0 0 Z " fill="#292729" transform="translate(662,65)"/>
<path d="M0 0 C3.63 0 7.26 0 11 0 C11.33 0.99 11.66 1.98 12 3 C8.37 3 4.74 3 1 3 C0.67 2.01 0.34 1.02 0 0 Z " fill="#29B5CC" transform="translate(18,80)"/>
<path d="M0 0 C1.32 0 2.64 0 4 0 C4.04241723 2.33294775 4.04092937 4.66702567 4 7 C3 8 3 8 0.93359375 8.09765625 C0.10988281 8.08605469 -0.71382813 8.07445313 -1.5625 8.0625 C-2.38878906 8.05347656 -3.21507812 8.04445313 -4.06640625 8.03515625 C-4.70449219 8.02355469 -5.34257812 8.01195313 -6 8 C-6 7.34 -6 6.68 -6 6 C-5.43410156 5.89042969 -4.86820312 5.78085938 -4.28515625 5.66796875 C-3.18494141 5.43013672 -3.18494141 5.43013672 -2.0625 5.1875 C-1.33160156 5.03667969 -0.60070312 4.88585937 0.15234375 4.73046875 C0.76207031 4.48941406 1.37179687 4.24835938 2 4 C2.33 3.01 2.66 2.02 3 1 C2.01 1.33 1.02 1.66 0 2 C0 1.34 0 0.68 0 0 Z " fill="#3A3A3B" transform="translate(434,68)"/>
<path d="M0 0 C2.475 0.495 2.475 0.495 5 1 C5.33 2.98 5.66 4.96 6 7 C4.02 7.33 2.04 7.66 0 8 C0 5.36 0 2.72 0 0 Z " fill="#04BDE1" transform="translate(138,10)"/>
<path d="M0 0 C1.27310312 0.93441535 2.543388 1.87267111 3.8125 2.8125 C4.52019531 3.33457031 5.22789063 3.85664062 5.95703125 4.39453125 C7.79961207 5.84252498 9.46364869 7.23101505 11 9 C11 9.66 11 10.32 11 11 C10.01 10.67 9.02 10.34 8 10 C8 9.34 8 8.68 8 8 C7.34 8 6.68 8 6 8 C6 7.34 6 6.68 6 6 C4.68 6 3.36 6 2 6 C2 5.34 2 4.68 2 4 C1.34 4 0.68 4 0 4 C0 2.68 0 1.36 0 0 Z " fill="#25BAD2" transform="translate(86,67)"/>
<path d="M0 0 C-0.33 1.98 -0.66 3.96 -1 6 C-1.66 6 -2.32 6 -3 6 C-3 6.66 -3 7.32 -3 8 C-4.32 7.67 -5.64 7.34 -7 7 C-3.86206897 0 -3.86206897 0 0 0 Z " fill="#0D90A4" transform="translate(42,23)"/>
<path d="M0 0 C1.5 1 1.5 1 3 3 C3.27345479 5.71846235 3.13491285 8.25677199 3 11 C2.01 11 1.02 11 0 11 C-0.19406478 9.35492782 -0.38007935 7.70890406 -0.5625 6.0625 C-0.66691406 5.14597656 -0.77132812 4.22945313 -0.87890625 3.28515625 C-0.91886719 2.53105469 -0.95882812 1.77695313 -1 1 C-0.67 0.67 -0.34 0.34 0 0 Z " fill="#363636" transform="translate(540,92)"/>
<path d="M0 0 C0 1.32 0 2.64 0 4 C-5.41538462 4.36923077 -5.41538462 4.36923077 -8.375 2.5 C-8.91125 2.005 -9.4475 1.51 -10 1 C-6.61981469 -0.04005702 -3.5219721 -0.08004482 0 0 Z " fill="#1797AB" transform="translate(74,9)"/>
<path d="M0 0 C-0.625 1.9375 -0.625 1.9375 -2 4 C-5.125 4.75 -5.125 4.75 -8 5 C-7.6875 3.0625 -7.6875 3.0625 -7 1 C-4 0 -4 0 0 0 Z " fill="#2C2C2C" transform="translate(677,106)"/>
<path d="M0 0 C0.99 0 1.98 0 3 0 C4.49821059 3.37097383 5 5.20442119 5 9 C4.34 9 3.68 9 3 9 C0 3.375 0 3.375 0 0 Z " fill="#272828" transform="translate(583,96)"/>
<path d="M0 0 C1.98 0.66 3.96 1.32 6 2 C5.01 3.485 5.01 3.485 4 5 C2.35 4.67 0.7 4.34 -1 4 C-1 1 -1 1 0 0 Z " fill="#15BAD8" transform="translate(60,83)"/>
<path d="M0 0 C0.66 0.33 1.32 0.66 2 1 C-1.33333333 3.66666667 -4.66666667 6.33333333 -8 9 C-8.66 8.67 -9.32 8.34 -10 8 C-8.71064081 6.85157077 -7.41843421 5.70633773 -6.125 4.5625 C-5.04605469 3.60537109 -5.04605469 3.60537109 -3.9453125 2.62890625 C-2 1 -2 1 0 0 Z " fill="#0D0E0E" transform="translate(652,68)"/>
<path d="M0 0 C2.4375 0.75 2.4375 0.75 5 2 C5.8125 4.125 5.8125 4.125 6 6 C4.68 6 3.36 6 2 6 C2 5.34 2 4.68 2 4 C1.34 4 0.68 4 0 4 C0 2.68 0 1.36 0 0 Z " fill="#15A1B9" transform="translate(112,15)"/>
<path d="M0 0 C-0.3125 1.9375 -0.3125 1.9375 -1 4 C-1.99 4.33 -2.98 4.66 -4 5 C-4 4.34 -4 3.68 -4 3 C-5.32 3.99 -6.64 4.98 -8 6 C-8.66 5.34 -9.32 4.68 -10 4 C-3.375 0 -3.375 0 0 0 Z " fill="#028099" transform="translate(59,13)"/>
<path d="M0 0 C0.99 0 1.98 0 3 0 C2.50168276 3.68754757 1.89932357 5.60490662 -1 8 C-1.33 6.35 -1.66 4.7 -2 3 C-1.34 3 -0.68 3 0 3 C0 2.01 0 1.02 0 0 Z " fill="#1C879A" transform="translate(146,128)"/>
<path d="M0 0 C0 0.66 0 1.32 0 2 C-2.97 2 -5.94 2 -9 2 C-9 1.34 -9 0.68 -9 0 C-5.93109813 -1.53445094 -3.29905734 -0.54984289 0 0 Z " fill="#313131" transform="translate(607,110)"/>
<path d="M0 0 C2.1519437 3.22791555 2.20086443 4.28400809 2 8 C1.34 7.01 0.68 6.02 0 5 C-0.66 5 -1.32 5 -2 5 C-2.33 4.01 -2.66 3.02 -3 2 C-3.99 1.34 -4.98 0.68 -6 0 C-3 -1 -3 -1 0 0 Z " fill="#0B0B0B" transform="translate(471,108)"/>
<path d="M0 0 C2.5 2.3125 2.5 2.3125 5 5 C5 5.99 5 6.98 5 8 C4.401875 7.835 3.80375 7.67 3.1875 7.5 C0.88655664 6.8885876 0.88655664 6.8885876 -2 7 C-1.34 6.34 -0.68 5.68 0 5 C0.16687448 2.41645782 0.16687448 2.41645782 0 0 Z " fill="#32C5DC" transform="translate(70,89)"/>
<path d="M0 0 C-0.99 1.485 -0.99 1.485 -2 3 C-3.9453125 3.29296875 -3.9453125 3.29296875 -6.125 3.1875 C-7.40375 3.125625 -8.6825 3.06375 -10 3 C-10.33 2.34 -10.66 1.68 -11 1 C-7.27569643 0.30710631 -3.78916254 -0.11144596 0 0 Z " fill="#242625" transform="translate(374,88)"/>
<path d="M0 0 C-0.66 1.32 -1.32 2.64 -2 4 C-2.33 3.67 -2.66 3.34 -3 3 C-5.34987262 2.76472227 -7.70556039 2.58613583 -10.0625 2.4375 C-11.35285156 2.35371094 -12.64320313 2.26992187 -13.97265625 2.18359375 C-15.47119141 2.09271484 -15.47119141 2.09271484 -17 2 C-17 1.67 -17 1.34 -17 1 C-14.54171921 0.83252588 -12.08338135 0.6659856 -9.625 0.5 C-8.92632812 0.45230469 -8.22765625 0.40460938 -7.5078125 0.35546875 C-2.2265625 0 -2.2265625 0 0 0 Z " fill="#25ACC2" transform="translate(149,80)"/>
<path d="M0 0 C0.99 0.33 1.98 0.66 3 1 C2.01 1.66 1.02 2.32 0 3 C0.66 4.65 1.32 6.3 2 8 C-0.02045442 7.39816251 -2.02111039 6.72693904 -4 6 C-4.33 5.34 -4.66 4.68 -5 4 C-2.6875 1.9375 -2.6875 1.9375 0 0 Z " fill="#CFF1F3" transform="translate(67,79)"/>
<path d="M0 0 C-0.33 0.66 -0.66 1.32 -1 2 C-4.3 1.67 -7.6 1.34 -11 1 C-6.8204355 -1.78637633 -4.85331323 -0.79562512 0 0 Z " fill="#252525" transform="translate(608,67)"/>
<path d="M0 0 C3.00617269 3.00617269 2.59585316 5.82381598 3 10 C2.01 10.33 1.02 10.66 0 11 C0 7.37 0 3.74 0 0 Z " fill="#0D7B8E" transform="translate(144,50)"/>
<path d="M0 0 C2.32947183 2.11770166 3.88750845 4.03335588 5 7 C4.67 7.99 4.34 8.98 4 10 C3.731875 9.360625 3.46375 8.72125 3.1875 8.0625 C2.11332248 5.66868314 2.11332248 5.66868314 -1 5 C-0.67 3.35 -0.34 1.7 0 0 Z " fill="#0F707F" transform="translate(139,40)"/>
<path d="M0 0 C0.99 0 1.98 0 3 0 C2.67 1.32 2.34 2.64 2 4 C0.35 4.33 -1.3 4.66 -3 5 C-1.125 1.125 -1.125 1.125 0 0 Z " fill="#0AAABE" transform="translate(34,30)"/>
<path d="M0 0 C2.31 0.33 4.62 0.66 7 1 C6.67 1.99 6.34 2.98 6 4 C4.35 4 2.7 4 1 4 C0.67 2.68 0.34 1.36 0 0 Z " fill="#22AFB8" transform="translate(139,20)"/>
<path d="M0 0 C-0.99 0.495 -0.99 0.495 -2 1 C-2 1.66 -2 2.32 -2 3 C-4.64 3 -7.28 3 -10 3 C-10 2.34 -10 1.68 -10 1 C-6.78548731 -0.60725635 -3.56387464 -0.05748185 0 0 Z " fill="#0E7488" transform="translate(146,8)"/>
<path d="M0 0 C1.32 0 2.64 0 4 0 C3.34 2.31 2.68 4.62 2 7 C1.01 6.67 0.02 6.34 -1 6 C-0.67 4.02 -0.34 2.04 0 0 Z " fill="#099FBB" transform="translate(20,54)"/>
<path d="M0 0 C1.32 0.33 2.64 0.66 4 1 C3.67 1.99 3.34 2.98 3 4 C0.36 4 -2.28 4 -5 4 C-5 3.67 -5 3.34 -5 3 C-3.35 3 -1.7 3 0 3 C0 2.01 0 1.02 0 0 Z " fill="#151515" transform="translate(412,115)"/>
<path d="M0 0 C0.99 0 1.98 0 3 0 C2.67 3.96 2.34 7.92 2 12 C1.67 12 1.34 12 1 12 C0.67 8.04 0.34 4.08 0 0 Z " fill="#262727" transform="translate(685,106)"/>
<path d="M0 0 C0.99 0 1.98 0 3 0 C3 1.98 3 3.96 3 6 C2.01 6.495 2.01 6.495 1 7 C0.67 4.69 0.34 2.38 0 0 Z " fill="#454546" transform="translate(536,64)"/>
<path d="M0 0 C1.65 1.65 3.3 3.3 5 5 C4.67 5.66 4.34 6.32 4 7 C3.34 7 2.68 7 2 7 C2 6.34 2 5.68 2 5 C1.34 5 0.68 5 0 5 C0 3.35 0 1.7 0 0 Z " fill="#0D8195" transform="translate(124,22)"/>
<path d="M0 0 C0.99 0.33 1.98 0.66 3 1 C3 1.66 3 2.32 3 3 C2.34 3 1.68 3 1 3 C1 3.66 1 4.32 1 5 C0.01 5 -0.98 5 -2 5 C-2.33 4.01 -2.66 3.02 -3 2 C-2.01 1.34 -1.02 0.68 0 0 Z " fill="#0AA2B8" transform="translate(45,20)"/>
<path d="M0 0 C0 0.99 0 1.98 0 3 C-2.875 3.625 -2.875 3.625 -6 4 C-6.66 3.34 -7.32 2.68 -8 2 C-5.09399739 0.74335022 -3.20395416 0 0 0 Z " fill="#13B4D0" transform="translate(137,140)"/>
<path d="M0 0 C0.66 0.33 1.32 0.66 2 1 C1.67 1.33 1.34 1.66 1 2 C1.99 2.33 2.98 2.66 4 3 C4 3.99 4 4.98 4 6 C2.02 5.34 0.04 4.68 -2 4 C-1.34 2.68 -0.68 1.36 0 0 Z " fill="#5ED0E3" transform="translate(69,75)"/>
<path d="M0 0 C1.98 0 3.96 0 6 0 C6.33 0.66 6.66 1.32 7 2 C5.02 2.33 3.04 2.66 1 3 C0.67 2.01 0.34 1.02 0 0 Z " fill="#4A4A4A" transform="translate(599,73)"/>
<path d="M0 0 C2.31 0.33 4.62 0.66 7 1 C6.67 1.66 6.34 2.32 6 3 C4.02 3 2.04 3 0 3 C0 2.01 0 1.02 0 0 Z " fill="#404040" transform="translate(369,66)"/>
<path d="M0 0 C1.32 1.32 2.64 2.64 4 4 C3.67 4.66 3.34 5.32 3 6 C1.68 5.67 0.36 5.34 -1 5 C-0.67 3.35 -0.34 1.7 0 0 Z " fill="#0C859F" transform="translate(135,34)"/>
</svg>
